<?xml version="1.0" standalone="no"?>
<!DOCTYPE svg PUBLIC "-//W3C//DTD SVG 20010904//EN"
 "http://www.w3.org/TR/2001/REC-SVG-20010904/DTD/svg10.dtd">
<svg version="1.0" xmlns="http://www.w3.org/2000/svg"
 width="350.000000pt" height="400.000000pt" viewBox="0 0 350.000000 400.000000"
 preserveAspectRatio="xMidYMid meet">
<metadata>
Created by potrace 1.15, written by Peter Selinger 2001-2017
</metadata>
<g transform="translate(0.000000,400.000000) scale(0.100000,-0.100000)"
fill="#000000" stroke="none">
<path d="M1390 3679 c-190 -111 -379 -219 -420 -241 -41 -22 -249 -141 -462
-264 -212 -123 -391 -224 -397 -224 -8 0 -11 -272 -11 -950 0 -653 3 -950 10
-950 6 0 181 -98 388 -218 207 -121 406 -235 442 -254 36 -19 233 -132 438
-251 l373 -216 407 235 c224 129 418 241 432 248 14 8 197 113 407 235 211
122 387 221 393 221 7 0 10 307 10 943 l0 944 -397 230 c-219 126 -407 235
-418 241 -11 6 -201 114 -421 241 -221 127 -408 231 -415 231 -8 -1 -169 -91
-359 -201z m-20 -1424 c0 -250 3 -455 6 -455 8 0 320 177 356 202 27 19 28 19
55 -1 16 -10 103 -62 196 -115 l167 -95 0 455 c0 250 2 454 4 454 6 0 390
-220 398 -229 5 -4 8 -215 9 -470 l0 -463 -205 -118 c-163 -93 -207 -115 -218
-105 -18 17 -368 215 -379 215 -12 0 -382 -211 -390 -222 -3 -5 -39 11 -80 36
-41 24 -132 77 -204 118 l-130 74 -2 469 -3 470 203 117 c111 64 205 117 210
117 4 1 7 -204 7 -454z"/>
</g>
</svg>
